<svg xmlns="http://www.w3.org/2000/svg" version="1.1" xmlns:xlink="http://www.w3.org/1999/xlink" xmlns:svgjs="http://svgjs.com/svgjs" width="1440" height="860" preserveAspectRatio="none" viewBox="0 0 1440 860"><g mask="url(&quot;#SvgjsMask1017&quot;)" fill="none"><rect width="1440" height="860" x="0" y="0" fill="rgba(25, 0, 46, 1)"></rect><path d="M3.5528783035608598 271.17926723275866L244.41662833983895 178.72033625007106 151.95769735715135-62.14341378620702-88.90605267912673 30.315517196480585z" fill="rgba(133, 48, 209, 0.25098039215686274)" class="triangle-float3"></path><path d="M133.19524431157197-60.98355169857133L-38.38577233311784-48.98543821458176 65.40190621521145 202.38703001045815z" fill="rgba(133, 48, 209, 0.25098039215686274)" class="triangle-float3"></path><path d="M286.7312430919055 114.21093645498507L131.46296711867708-91.83702513721653-74.58499447352449 63.43125083601191 80.68328149970392 269.4792124282135z" fill="rgba(133, 48, 209, 0.25098039215686274)" class="triangle-float1"></path><path d="M1378.259,248.621C1430.47,249.889,1483.634,231.39,1510.686,186.716C1538.607,140.608,1534.527,82.276,1507.084,35.882C1480.148,-9.656,1431.113,-39.541,1378.259,-37.161C1328.851,-34.936,1292.213,3.477,1268.074,46.644C1244.639,88.553,1233.527,138.392,1256.522,180.544C1280.386,224.289,1328.443,247.411,1378.259,248.621" fill="rgba(133, 48, 209, 0.25098039215686274)" class="triangle-float1"></path><path d="M1420.118,304.08C1476.714,300.757,1532.758,282.578,1562.708,234.442C1594.339,183.605,1598.606,118.191,1567.675,66.925C1537.625,17.12,1478.277,-0.851,1420.118,-1.888C1359.652,-2.966,1297.365,11.625,1263.159,61.498C1224.277,118.189,1207.902,195.364,1245.246,253.08C1280.599,307.718,1355.152,307.894,1420.118,304.08" fill="rgba(133, 48, 209, 0.25098039215686274)" class="triangle-float1"></path><path d="M1281.357403245425-103.24043443630414L1176.4193493318687 132.45429363548686 1412.1140774036596 237.39234754904334 1517.0521313172162 1.697619477252303z" fill="rgba(133, 48, 209, 0.25098039215686274)" class="triangle-float2"></path><path d="M113.111,935.54C164.147,934.1,218.788,921.056,243.098,876.159C266.623,832.71,243.353,782.967,218.999,739.977C194.15,696.113,163.376,650.573,113.111,646.705C57.111,642.396,3.712,673.108,-25.341,721.176C-55.421,770.944,-61.786,835.024,-30.236,883.873C-0.701,929.602,58.695,937.076,113.111,935.54" fill="rgba(133, 48, 209, 0.25098039215686274)" class="triangle-float3"></path><path d="M-115.19301948030787 798.7033965536191L88.11375495022637 957.544057187639 246.95441558424628 754.2372827571048 43.647641153712044 595.3966221230849z" fill="rgba(133, 48, 209, 0.25098039215686274)" class="triangle-float1"></path><path d="M152.024,1037.631C217.714,1037.057,265.911,981.535,295.845,923.059C322.86,870.287,322.641,809.889,295.62,757.12C265.671,698.633,217.715,643.714,152.024,642.197C84.381,640.635,27.822,690.255,-3.538,750.21C-32.607,805.786,-26.072,870.454,3.782,925.612C35.379,983.992,85.645,1038.211,152.024,1037.631" fill="rgba(133, 48, 209, 0.25098039215686274)" class="triangle-float1"></path><path d="M1409.493,1007.056C1475.385,1010.556,1544.399,983.507,1574.977,925.035C1604.012,869.515,1577.785,804.476,1542.513,752.694C1512.224,708.227,1463.266,683.896,1409.493,682.089C1351.837,680.151,1289.95,693.877,1260.031,743.201C1229.244,793.957,1242.637,857.283,1271.895,908.935C1301.654,961.47,1349.2,1003.853,1409.493,1007.056" fill="rgba(133, 48, 209, 0.25098039215686274)" class="triangle-float2"></path><path d="M1497.3115029724158 771.498488410656L1236.849286032723 632.689706299059 1241.3520068935422 890.650411649408z" fill="rgba(133, 48, 209, 0.25098039215686274)" class="triangle-float1"></path><path d="M1116.76 724.57 a187.81 187.81 0 1 0 375.62 0 a187.81 187.81 0 1 0 -375.62 0z" fill="rgba(133, 48, 209, 0.25098039215686274)" class="triangle-float1"></path></g><defs><mask id="SvgjsMask1017"><rect width="1440" height="860" fill="#ffffff"></rect></mask><style>
            @keyframes float1 {
                0%{transform: translate(0, 0)}
                50%{transform: translate(-10px, 0)}
                100%{transform: translate(0, 0)}
            }

            .triangle-float1 {
                animation: float1 5s infinite;
            }

            @keyframes float2 {
                0%{transform: translate(0, 0)}
                50%{transform: translate(-5px, -5px)}
                100%{transform: translate(0, 0)}
            }

            .triangle-float2 {
                animation: float2 4s infinite;
            }

            @keyframes float3 {
                0%{transform: translate(0, 0)}
                50%{transform: translate(0, -10px)}
                100%{transform: translate(0, 0)}
            }

            .triangle-float3 {
                animation: float3 6s infinite;
            }
        </style></defs></svg>