<svg xmlns="http://www.w3.org/2000/svg" version="1.1" xmlns:xlink="http://www.w3.org/1999/xlink" xmlns:svgjs="http://svgjs.com/svgjs" width="1440" height="560" preserveAspectRatio="none" viewBox="0 0 1440 560"><g mask="url(&quot;#SvgjsMask1002&quot;)" fill="none"><rect width="1440" height="560" x="0" y="0" fill="rgba(25, 0, 46, 1)"></rect><path d="M0 46.67C11.83 16.26 22.52 10.64 54.44 0C92.52 -12.7 97.22 0 140 0C210 0 210 0 280 0C350 0 350 0 420 0C490 0 490 0 560 0C630 0 630 0 700 0C770 0 770 0 840 0C910 0 910 0 980 0C1050 0 1050 0 1120 0C1190 0 1190 0 1260 0C1330 0 1330 0 1400 0C1457.97 0 1466.46 -14.71 1515.94 0C1536.46 6.1 1536.05 18.64 1540 41.62C1548.08 88.64 1540 90.81 1540 140C1540 186.67 1551.74 190.9 1540 233.33C1532.38 260.9 1501.28 259.71 1501.28 280C1501.28 295.34 1534.49 284.68 1540 304.59C1553.85 354.68 1540 362.29 1540 420C1540 490 1575 525 1540 560C1505 595 1470 560 1400 560C1330 560 1330 560 1260 560C1213.34 560 1208.87 572.06 1166.67 560C1138.87 552.06 1137.47 544.67 1120 520C1087.89 474.67 1104.16 460.28 1067.5 420C1034.16 383.36 1020.48 366.15 980 366.15C950.22 366.15 926.97 389.97 926.97 420C926.97 460.65 943.63 474.23 980 507.5C1020.15 544.23 1080 546.08 1080 560C1080 572.33 1030 560 980 560C910 560 910 560 840 560C788.36 560 783.42 572.05 736.72 560C713.42 553.99 717.52 542.73 700 523.87C652.5 472.73 644.25 477.69 606.67 420C574.25 370.24 588.48 308.97 560 308.97C528.56 308.97 525.55 366.04 486.82 420C455.55 463.55 464.51 480.77 420 504C361.1 534.73 347.96 509.53 280 527.92C244.48 537.53 248.33 551.91 213.04 560C178.33 567.95 176.52 560 140 560C70 560 35 595 0 560C-35 525 0 490 0 420C0 350 0 350 0 280C0 210 0 210 0 140C0 93.34 -15.39 86.26 0 46.67" stroke="rgba(133, 48, 209, 0.34509803921568627)" stroke-width="2"></path><path d="M420 118.04C403.76 120.82 393.95 130.41 393.95 140C393.95 148.3 407.3 146.34 420 153.83C490.33 195.34 502.91 242.12 560 238C598.7 235.21 611.58 181.26 611.58 140C611.58 118.06 588.34 114.84 560 111.59C492.55 103.86 486.79 106.61 420 118.04" stroke="rgba(133, 48, 209, 0.34509803921568627)" stroke-width="2"></path><path d="M140 225.22C112.88 225.22 91.54 257.92 91.54 280C91.54 295.99 115.05 301.36 140 301.36C176.34 301.36 214.12 297.35 214.12 280C214.12 259.28 174.17 225.22 140 225.22" stroke="rgba(133, 48, 209, 0.34509803921568627)" stroke-width="2"></path><path d="M1400 366.55C1363.6 366.55 1316 386.67 1316 420C1316 464.08 1367.02 521.38 1400 521.38C1426.94 521.38 1435.85 468.43 1435.85 420C1435.85 391.01 1423.53 366.55 1400 366.55" stroke="rgba(133, 48, 209, 0.34509803921568627)" stroke-width="2"></path><path d="M213.33 140C213.33 100.59 253.16 52.5 280 52.5C302.78 52.5 282.16 108.62 312.56 140C352.16 180.89 369.82 163.22 420 197.04C473.69 233.22 520.3 232.99 520.3 280C520.3 339.08 470.75 345.14 420 409.23C415.32 415.14 415.91 416.19 409.43 420C345.91 457.31 346.07 458.45 280 491.46C211.36 525.76 211.73 549.21 140 554.62C71.73 559.77 42.86 553.79 0 512.58C-27.14 486.48 0 466.29 0 420C0 361.43 -30.53 315.79 0 302.86C39.47 286.13 68.94 357.33 140 360.68C208.94 363.93 214.57 345.95 280 316.06C302.88 305.61 316.62 301.74 316.62 280C316.62 239.63 307.4 228.99 280 191.85C255.76 158.99 213.33 170.26 213.33 140" stroke="rgba(133, 48, 209, 0.34509803921568627)" stroke-width="2"></path><path d="M420 49.41C364.58 35.64 315 12.97 315 0C315 -11.74 367.5 0 420 0C490 0 490 0 560 0C630 0 630 0 700 0C770 0 770 0 840 0C879.04 0 898.52 -24.63 918.08 0C954.11 45.37 928.56 72.59 951.18 140C959.52 164.86 961.45 184.55 980 184.55C1006.48 184.55 1008.88 159.4 1041.25 140C1078.88 117.44 1088.52 129.64 1120 100.63C1164.49 59.64 1147.64 32.74 1193.18 0C1217.64 -17.58 1226.59 0 1260 0C1330 0 1330 0 1400 0C1430.63 0 1441.64 -19.08 1461.25 0C1511.64 49.03 1501.55 67.86 1540 136.22C1540.92 137.86 1540 138.11 1540 140C1540 141.79 1541.12 142.2 1540 143.59C1484.53 212.2 1485.19 213.56 1426.81 280C1415.19 293.22 1414.52 302.91 1400 302.91C1380.79 302.91 1378.87 292.74 1359.35 280C1308.87 247.06 1303.16 211.56 1260 211.56C1230.5 211.56 1239.05 247.29 1214.03 280C1169.05 338.79 1175.84 386.84 1120 394.55C1058.82 403 1043.72 305.72 980 312.31C920.69 318.44 885.57 358.27 873.94 420C862.24 482.11 943.85 516.62 933.33 560C926.88 586.62 886.66 560 840 560C817.05 560 812.16 571.94 794.1 560C742.16 525.65 746.09 514.62 700 467.42C677.74 444.62 671.77 447.95 657.39 420C623.57 354.24 593.54 345.41 603.61 280C614.84 207.04 651.05 210.85 700 143.26C701.75 140.85 705 141.89 705 140C705 137.76 703.1 136.69 700 135C630.6 97.13 634.2 83.55 560 60.87C494.2 40.76 487.08 66.08 420 49.41" stroke="rgba(133, 48, 209, 0.34509803921568627)" stroke-width="2"></path><path d="M1478.54 420C1480.02 380.5 1522.36 351.89 1540 351.89C1553.09 351.89 1540 385.94 1540 420C1540 490 1543.69 493.69 1540 560C1539.8 563.69 1533.74 563.45 1532.22 560C1503.01 493.45 1476.13 484.56 1478.54 420" stroke="rgba(133, 48, 209, 0.34509803921568627)" stroke-width="2"></path><path d="M560 10.14C530.53 8.65 501.67 2.55 501.67 0C501.67 -2.52 530.84 0 560 0C630 0 630 0 700 0C770 0 770 0 840 0C845.38 0 850.48 -5 850.77 0C854.6 65 853.07 71 848.24 140C847.68 148 844.43 154 840 154C835.31 154 835.99 146.16 830 140C765.99 74.16 776.64 46.86 700 10C641.64 -18.07 629.69 13.65 560 10.14" stroke="rgba(133, 48, 209, 0.34509803921568627)" stroke-width="2"></path><path d="M1353.33 140C1330.89 84.56 1323.64 49.07 1340 0C1346.98 -20.93 1370 0 1400 0C1403.28 0 1406.43 -3.13 1406.56 0C1409.23 66.87 1408.66 70.8 1405.6 140C1405.38 144.92 1404.54 148.24 1400 148.24C1378.4 148.24 1360.89 158.68 1353.33 140" stroke="rgba(133, 48, 209, 0.34509803921568627)" stroke-width="2"></path><path d="M370.46 280C370.46 257.39 395.38 240.25 420 240.25C444.18 240.25 468.06 257.47 468.06 280C468.06 308.31 444.26 341.92 420 341.92C395.46 341.92 370.46 308.23 370.46 280" stroke="rgba(133, 48, 209, 0.34509803921568627)" stroke-width="2"></path><path d="M660.98 280C660.98 249.55 676.68 224.65 700 224.65C730.19 224.65 768 246.36 768 280C768 330.7 728.06 393.33 700 393.33C674.55 393.33 660.98 333.89 660.98 280" stroke="rgba(133, 48, 209, 0.34509803921568627)" stroke-width="2"></path><path d="M1026.67 280C1026.67 245.68 1080.87 202.22 1120 202.22C1148.43 202.22 1161.79 243.15 1161.79 280C1161.79 307.49 1145.84 330.91 1120 330.91C1078.28 330.91 1026.67 310.03 1026.67 280" stroke="rgba(133, 48, 209, 0.34509803921568627)" stroke-width="2"></path><path d="M0 374.29C53.42 374.29 140 399.35 140 420C140 440.27 56.01 456.13 0 456.13C-13.99 456.13 0 438.07 0 420C0 397.14 -16.58 374.29 0 374.29" stroke="rgba(133, 48, 209, 0.34509803921568627)" stroke-width="2"></path><path d="M140 420C140 398.18 214.21 369.09 280 369.09C315.91 369.09 343.4 397.28 343.4 420C343.4 440.24 313.98 455 280 455C212.28 455 140 441.14 140 420" stroke="rgba(133, 48, 209, 0.34509803921568627)" stroke-width="2"></path><path d="M1521.22 420C1521.22 408.03 1534.61 399.19 1540 399.19C1544 399.19 1540 409.6 1540 420C1540 442 1544.5 464 1540 464C1535.11 464 1521.22 440.43 1521.22 420" stroke="rgba(133, 48, 209, 0.34509803921568627)" stroke-width="2"></path></g><defs><mask id="SvgjsMask1002"><rect width="1440" height="560" fill="#ffffff"></rect></mask></defs></svg>