<svg xmlns="http://www.w3.org/2000/svg" version="1.1" xmlns:xlink="http://www.w3.org/1999/xlink" xmlns:svgjs="http://svgjs.com/svgjs" width="1440" height="560" preserveAspectRatio="none" viewBox="0 0 1440 560"><g mask="url(&quot;#SvgjsMask1008&quot;)" fill="none"><rect width="1440" height="560" x="0" y="0" fill="rgba(25, 0, 46, 1)"></rect><path d="M 0,114 C 57.6,129.6 172.8,211.2 288,192 C 403.2,172.8 460.8,22.6 576,18 C 691.2,13.4 748.8,161.2 864,169 C 979.2,176.8 1036.8,35.8 1152,57 C 1267.2,78.2 1382.4,231.4 1440,275L1440 560L0 560z" fill="rgba(65, 1, 121, 1)"></path><path d="M 0,367 C 96,391.2 288,504.2 480,488 C 672,471.8 768,280.8 960,286 C 1152,291.2 1344,468.4 1440,514L1440 560L0 560z" fill="rgba(133, 48, 209, 1)"></path></g><defs><mask id="SvgjsMask1008"><rect width="1440" height="560" fill="#ffffff"></rect></mask></defs></svg>