<svg id="visual" viewBox="0 0 900 600" width="900" height="600" xmlns="http://www.w3.org/2000/svg" xmlns:xlink="http://www.w3.org/1999/xlink" version="1.1"><path d="M710 600L584 600L584 545L755 545L755 491L683 491L683 436L701 436L701 382L557 382L557 327L593 327L593 273L701 273L701 218L665 218L665 164L773 164L773 109L575 109L575 55L728 55L728 0L900 0L900 55L900 55L900 109L900 109L900 164L900 164L900 218L900 218L900 273L900 273L900 327L900 327L900 382L900 382L900 436L900 436L900 491L900 491L900 545L900 545L900 600L900 600Z" fill="#fa7268"></path><path d="M602 600L449 600L449 545L629 545L629 491L575 491L575 436L548 436L548 382L395 382L395 327L422 327L422 273L539 273L539 218L485 218L485 164L620 164L620 109L485 109L485 55L638 55L638 0L729 0L729 55L576 55L576 109L774 109L774 164L666 164L666 218L702 218L702 273L594 273L594 327L558 327L558 382L702 382L702 436L684 436L684 491L756 491L756 545L585 545L585 600L711 600Z" fill="#ea5e66"></path><path d="M386 600L269 600L269 545L377 545L377 491L467 491L467 436L350 436L350 382L269 382L269 327L251 327L251 273L440 273L440 218L323 218L323 164L440 164L440 109L341 109L341 55L530 55L530 0L639 0L639 55L486 55L486 109L621 109L621 164L486 164L486 218L540 218L540 273L423 273L423 327L396 327L396 382L549 382L549 436L576 436L576 491L630 491L630 545L450 545L450 600L603 600Z" fill="#d84a64"></path><path d="M62 600L116 600L116 545L62 545L62 491L116 491L116 436L134 436L134 382L134 382L134 327L152 327L152 273L71 273L71 218L125 218L125 164L98 164L98 109L152 109L152 55L116 55L116 0L531 0L531 55L342 55L342 109L441 109L441 164L324 164L324 218L441 218L441 273L252 273L252 327L270 327L270 382L351 382L351 436L468 436L468 491L378 491L378 545L270 545L270 600L387 600Z" fill="#c53762"></path><path d="M0 600L0 600L0 545L0 545L0 491L0 491L0 436L0 436L0 382L0 382L0 327L0 327L0 273L0 273L0 218L0 218L0 164L0 164L0 109L0 109L0 55L0 55L0 0L117 0L117 55L153 55L153 109L99 109L99 164L126 164L126 218L72 218L72 273L153 273L153 327L135 327L135 382L135 382L135 436L117 436L117 491L63 491L63 545L117 545L117 600L63 600Z" fill="#b0235f"></path></svg>