<svg id="visual" viewBox="0 0 900 600" width="900" height="600" xmlns="http://www.w3.org/2000/svg" xmlns:xlink="http://www.w3.org/1999/xlink" version="1.1"><path d="M0 109L82 121L164 73L245 121L327 55L409 115L491 55L573 73L655 121L736 73L818 91L900 91L900 0L818 0L736 0L655 0L573 0L491 0L409 0L327 0L245 0L164 0L82 0L0 0Z" fill="#00cc8e"></path><path d="M0 181L82 193L164 211L245 169L327 211L409 229L491 211L573 157L655 259L736 163L818 241L900 247L900 89L818 89L736 71L655 119L573 71L491 53L409 113L327 53L245 119L164 71L82 119L0 107Z" fill="#00b98a"></path><path d="M0 331L82 301L164 391L245 331L327 325L409 307L491 319L573 301L655 385L736 409L818 445L900 367L900 245L818 239L736 161L655 257L573 155L491 209L409 227L327 209L245 167L164 209L82 191L0 179Z" fill="#00a784"></path><path d="M0 499L82 541L164 505L245 547L327 529L409 505L491 547L573 505L655 541L736 511L818 529L900 565L900 365L818 443L736 407L655 383L573 299L491 317L409 305L327 323L245 329L164 389L82 299L0 329Z" fill="#00957c"></path><path d="M0 601L82 601L164 601L245 601L327 601L409 601L491 601L573 601L655 601L736 601L818 601L900 601L900 563L818 527L736 509L655 539L573 503L491 545L409 503L327 527L245 545L164 503L82 539L0 497Z" fill="#038373"></path></svg>